<svg width="20" height="20" viewBox="0 0 20 20" fill="none" xmlns="http://www.w3.org/2000/svg">
<path d="M10.3655 11.366L12.1404 12.391C11.0808 14.738 10.9694 17.4037 11.8294 19.831C11.226 19.9439 10.6134 20.0005 9.99949 20C8.58258 20.0022 7.18148 19.7022 5.8897 19.12L10.3655 11.366ZM13.8823 13.398L18.1161 15.842C17.0132 17.3728 15.5011 18.5616 13.7533 19.272C13.0876 17.4745 13.0905 15.4976 13.7613 13.702L13.8823 13.398ZM6.85965 9.342L8.63456 10.366L4.15879 18.116C2.50317 16.9235 1.25081 15.2541 0.568971 13.331C2.98517 12.8848 5.15178 11.5627 6.65366 9.618L6.85965 9.342ZM19.905 8.616C19.968 9.069 20 9.531 20 10C20.0022 11.417 19.7022 12.8182 19.12 14.11L14.8842 11.665C16.0768 10.0909 17.8103 9.01462 19.75 8.644L19.905 8.616ZM0.880955 5.891L5.11574 8.336C3.89019 9.95339 2.09515 11.0438 0.0949953 11.386C0.0316832 10.9267 -5.63499e-05 10.4636 7.50989e-08 10C7.50989e-08 8.535 0.314984 7.144 0.879956 5.89L0.880955 5.891ZM15.8412 1.88301C17.4968 3.07553 18.7492 4.74485 19.431 6.668C17.0144 7.11511 14.8476 8.43785 13.3453 10.383L13.1403 10.659L11.3654 9.634L15.8412 1.88401V1.88301ZM9.99949 7.0644e-06C11.4644 7.0644e-06 12.8553 0.315007 14.1093 0.880006L9.63351 8.634L7.8586 7.61C8.91873 5.26243 9.03016 2.59585 8.16959 0.168007C8.77304 0.0555156 9.38564 -0.000725487 9.99949 7.0644e-06ZM6.24668 0.730006C6.91136 2.5278 6.90781 4.50461 6.23668 6.3L6.11669 6.603L1.8829 4.158C2.94309 2.68698 4.38199 1.53069 6.04669 0.812006L6.24668 0.729006V0.730006Z" fill="#A4A4A4"/>
</svg>
