<svg width="21" height="21" viewBox="0 0 21 21" fill="none" xmlns="http://www.w3.org/2000/svg">
<path d="M9.61317 0C12.1627 0 14.6079 1.01281 16.4107 2.81563C18.2135 4.61845 19.2263 7.0636 19.2263 9.61317C19.2287 11.1076 18.8811 12.5818 18.2114 13.9178L20.7037 16.4112C20.8934 16.601 21 16.8583 21 17.1266C21 17.3949 20.8934 17.6523 20.7037 17.842L17.842 20.7037C17.6523 20.8934 17.3949 21 17.1266 21C16.8583 21 16.601 20.8934 16.4112 20.7037L13.9178 18.2114C12.5818 18.8811 11.1076 19.2287 9.61317 19.2263C7.0636 19.2263 4.61845 18.2135 2.81563 16.4107C1.01281 14.6079 0 12.1627 0 9.61317C0 7.0636 1.01281 4.61845 2.81563 2.81563C4.61845 1.01281 7.0636 3.79916e-08 9.61317 0ZM14.9793 13.5475L13.5485 14.9783L17.1266 18.5554L18.5575 17.1246L14.9793 13.5475ZM16.8655 7.36976L7.36976 16.8655C8.0781 17.0841 8.83197 17.2025 9.61317 17.2025C10.5619 17.2038 11.5025 17.0266 12.3858 16.6804L11.4022 15.6948C11.2125 15.505 11.106 15.2477 11.106 14.9793C11.106 14.711 11.2125 14.4537 11.4022 14.2639L14.2639 11.4022C14.4537 11.2125 14.711 11.106 14.9793 11.106C15.2477 11.106 15.505 11.2125 15.6948 11.4022L16.6804 12.3858C17.0266 11.5025 17.2038 10.5619 17.2025 9.61317C17.2025 8.83197 17.0841 8.07911 16.8655 7.36976Z" fill="#A4A4A4"/>
</svg>
