<svg width="137" height="21" viewBox="0 0 137 21" fill="none" xmlns="http://www.w3.org/2000/svg">
<path d="M0 20.4H20V0.4H0V20.4ZM26.3956 19V4.45455H35.7138V6.66335H29.0305V10.6122H35.0746V12.821H29.0305V19H26.3956ZM41.9585 19.2131C40.8931 19.2131 39.9698 18.9787 39.1886 18.5099C38.4073 18.0412 37.8013 17.3854 37.3704 16.5426C36.9442 15.6998 36.7312 14.715 36.7312 13.5881C36.7312 12.4612 36.9442 11.474 37.3704 10.6264C37.8013 9.77888 38.4073 9.12074 39.1886 8.65199C39.9698 8.18324 40.8931 7.94886 41.9585 7.94886C43.0238 7.94886 43.9471 8.18324 44.7283 8.65199C45.5096 9.12074 46.1133 9.77888 46.5394 10.6264C46.9703 11.474 47.1857 12.4612 47.1857 13.5881C47.1857 14.715 46.9703 15.6998 46.5394 16.5426C46.1133 17.3854 45.5096 18.0412 44.7283 18.5099C43.9471 18.9787 43.0238 19.2131 41.9585 19.2131ZM41.9727 17.1534C42.5503 17.1534 43.0333 16.9948 43.4215 16.6776C43.8098 16.3556 44.0986 15.9247 44.288 15.3849C44.4821 14.8452 44.5792 14.2438 44.5792 13.581C44.5792 12.9134 44.4821 12.3097 44.288 11.7699C44.0986 11.2254 43.8098 10.7921 43.4215 10.4702C43.0333 10.1482 42.5503 9.98722 41.9727 9.98722C41.3808 9.98722 40.8884 10.1482 40.4954 10.4702C40.1071 10.7921 39.8159 11.2254 39.6218 11.7699C39.4324 12.3097 39.3377 12.9134 39.3377 13.581C39.3377 14.2438 39.4324 14.8452 39.6218 15.3849C39.8159 15.9247 40.1071 16.3556 40.4954 16.6776C40.8884 16.9948 41.3808 17.1534 41.9727 17.1534ZM51.9389 4.45455V19H49.3679V4.45455H51.9389ZM57.1538 4.45455V19H54.5827V4.45455H57.1538ZM64.5561 19.2131C63.4908 19.2131 62.5675 18.9787 61.7862 18.5099C61.005 18.0412 60.3989 17.3854 59.968 16.5426C59.5419 15.6998 59.3288 14.715 59.3288 13.5881C59.3288 12.4612 59.5419 11.474 59.968 10.6264C60.3989 9.77888 61.005 9.12074 61.7862 8.65199C62.5675 8.18324 63.4908 7.94886 64.5561 7.94886C65.6214 7.94886 66.5447 8.18324 67.326 8.65199C68.1072 9.12074 68.7109 9.77888 69.1371 10.6264C69.5679 11.474 69.7834 12.4612 69.7834 13.5881C69.7834 14.715 69.5679 15.6998 69.1371 16.5426C68.7109 17.3854 68.1072 18.0412 67.326 18.5099C66.5447 18.9787 65.6214 19.2131 64.5561 19.2131ZM64.5703 17.1534C65.148 17.1534 65.6309 16.9948 66.0192 16.6776C66.4074 16.3556 66.6963 15.9247 66.8857 15.3849C67.0798 14.8452 67.1768 14.2438 67.1768 13.581C67.1768 12.9134 67.0798 12.3097 66.8857 11.7699C66.6963 11.2254 66.4074 10.7921 66.0192 10.4702C65.6309 10.1482 65.148 9.98722 64.5703 9.98722C63.9785 9.98722 63.486 10.1482 63.093 10.4702C62.7048 10.7921 62.4136 11.2254 62.2195 11.7699C62.0301 12.3097 61.9354 12.9134 61.9354 13.581C61.9354 14.2438 62.0301 14.8452 62.2195 15.3849C62.4136 15.9247 62.7048 16.3556 63.093 16.6776C63.486 16.9948 63.9785 17.1534 64.5703 17.1534ZM73.9045 19L70.8221 8.09091H73.4428L75.3604 15.7614H75.4599L77.4201 8.09091H80.0124L81.9727 15.7188H82.0792L83.9684 8.09091H86.5962L83.5067 19H80.8292L78.7837 11.6278H78.6346L76.5891 19H73.9045ZM105.916 9.36222H103.26C103.184 8.92661 103.045 8.54072 102.841 8.20455C102.637 7.86364 102.384 7.57481 102.081 7.33807C101.778 7.10133 101.432 6.92377 101.044 6.8054C100.661 6.68229 100.246 6.62074 99.8011 6.62074C99.0104 6.62074 98.3097 6.8196 97.6989 7.21733C97.0881 7.61032 96.6098 8.18797 96.2642 8.95028C95.9186 9.70786 95.7457 10.6335 95.7457 11.7273C95.7457 12.84 95.9186 13.7775 96.2642 14.5398C96.6146 15.2973 97.0928 15.8703 97.6989 16.2585C98.3097 16.642 99.008 16.8338 99.794 16.8338C100.23 16.8338 100.637 16.777 101.016 16.6634C101.399 16.545 101.742 16.3722 102.045 16.1449C102.353 15.9176 102.611 15.6383 102.82 15.3068C103.033 14.9754 103.179 14.5966 103.26 14.1705L105.916 14.1847C105.817 14.8759 105.601 15.5246 105.27 16.1307C104.943 16.7367 104.515 17.2718 103.984 17.7358C103.454 18.1951 102.834 18.5549 102.124 18.8153C101.413 19.071 100.625 19.1989 99.7585 19.1989C98.4801 19.1989 97.339 18.9029 96.3352 18.3111C95.3314 17.7192 94.5407 16.8646 93.9631 15.7472C93.3854 14.6297 93.0966 13.2898 93.0966 11.7273C93.0966 10.16 93.3878 8.82008 93.9702 7.70739C94.5526 6.58996 95.3456 5.73532 96.3494 5.14347C97.3532 4.55161 98.4896 4.25568 99.7585 4.25568C100.568 4.25568 101.321 4.36932 102.017 4.59659C102.713 4.82386 103.333 5.15767 103.878 5.59801C104.422 6.03362 104.87 6.56866 105.22 7.20312C105.575 7.83286 105.807 8.55256 105.916 9.36222ZM110.787 4.45455V19H108.216V4.45455H110.787ZM120.384 14.4119V8.09091H122.955V19H120.462V17.0611H120.348C120.102 17.6719 119.697 18.1714 119.134 18.5597C118.575 18.9479 117.886 19.142 117.067 19.142C116.352 19.142 115.72 18.9834 115.17 18.6662C114.626 18.3442 114.2 17.8778 113.892 17.267C113.584 16.6515 113.43 15.9081 113.43 15.0369V8.09091H116.001V14.6392C116.001 15.3305 116.191 15.8797 116.57 16.2869C116.948 16.6941 117.446 16.8977 118.061 16.8977C118.44 16.8977 118.807 16.8054 119.162 16.6207C119.517 16.4361 119.808 16.1615 120.036 15.7969C120.268 15.4276 120.384 14.9659 120.384 14.4119ZM125.712 19V4.45455H128.283V9.89489H128.39C128.522 9.62973 128.709 9.34801 128.951 9.04972C129.192 8.74669 129.519 8.48864 129.931 8.27557C130.343 8.05777 130.868 7.94886 131.507 7.94886C132.35 7.94886 133.11 8.1643 133.787 8.59517C134.469 9.02131 135.009 9.65341 135.407 10.4915C135.809 11.3248 136.01 12.3475 136.01 13.5597C136.01 14.7576 135.814 15.7756 135.421 16.6136C135.028 17.4517 134.493 18.0909 133.816 18.5312C133.139 18.9716 132.372 19.1918 131.515 19.1918C130.89 19.1918 130.371 19.0876 129.959 18.8793C129.547 18.6709 129.216 18.42 128.965 18.1264C128.719 17.8281 128.527 17.5464 128.39 17.2812H128.24V19H125.712ZM128.233 13.5455C128.233 14.2509 128.333 14.8688 128.532 15.3991C128.735 15.9295 129.026 16.3437 129.405 16.642C129.789 16.9356 130.253 17.0824 130.797 17.0824C131.365 17.0824 131.841 16.9309 132.225 16.6278C132.608 16.3201 132.897 15.901 133.091 15.3707C133.29 14.8357 133.39 14.2273 133.39 13.5455C133.39 12.8684 133.292 12.267 133.098 11.7415C132.904 11.2159 132.615 10.804 132.232 10.5057C131.848 10.2074 131.37 10.0582 130.797 10.0582C130.248 10.0582 129.782 10.2027 129.398 10.4915C129.015 10.7803 128.723 11.1851 128.525 11.706C128.33 12.2268 128.233 12.84 128.233 13.5455Z" fill="#100F0F"/>
</svg>
